<svg class="icon icon-youtube" width="19" height="19" viewBox="0 0 19 19" fill="none" xmlns="http://www.w3.org/2000/svg">
<path d="M18.1695 18.1698V11.5152C18.1695 8.24464 17.4655 5.74632 13.6499 5.74632C11.8102 5.74632 10.5837 6.74565 10.0841 7.69955H10.0387V6.04158H6.42745V18.1698H10.1976V12.1511C10.1976 10.5613 10.4929 9.03956 12.4461 9.03956C14.3766 9.03956 14.3994 10.8338 14.3994 12.2419V18.1471H18.1695V18.1698Z" fill="currentColor"/>
<path d="M0.295274 6.04179H4.06546V18.17H0.295274V6.04179Z" fill="currentColor"/>
<path d="M2.18035 0C0.976615 0 0 0.976615 0 2.18035C0 3.38408 0.976615 4.38341 2.18035 4.38341C3.38408 4.38341 4.3607 3.38408 4.3607 2.18035C4.3607 0.976615 3.38408 0 2.18035 0Z" fill="currentColor"/>
</svg>