<svg width="51" height="40" viewBox="0 0 51 40" fill="none" xmlns="http://www.w3.org/2000/svg" aira-hidden="true">
<path d="M30.1428 36.9526H20.5358C19.8765 36.9526 19.3398 37.4893 19.3398 38.1486C19.3398 38.8078 19.8765 39.3445 20.5358 39.3445H30.1428C30.802 39.3445 31.3387 38.8078 31.3387 38.1486C31.3387 37.4893 30.802 36.9526 30.1428 36.9526Z" fill="#14E1E3" stroke="#F2F4FA" stroke-width="0.25"/>
<path d="M29.1829 27.4907L29.2786 27.2979C29.5828 26.6872 29.7375 26.028 29.7375 25.3388C29.7375 24.1638 29.2801 23.0591 28.4504 22.2294C27.62 21.3983 26.5153 20.9408 25.3403 20.9408C24.6511 20.9408 23.9919 21.0955 23.3812 21.3998L23.1884 21.4954L15.9956 14.3027C15.7699 14.077 15.4694 13.9521 15.1503 13.9521C14.8311 13.9521 14.5306 14.0762 14.3049 14.3027C13.8385 14.7691 13.8385 15.5278 14.3049 15.9942L21.4976 23.1869L21.4019 23.3798C21.0977 23.9904 20.943 24.6497 20.943 25.3388C20.943 26.5138 21.4004 27.6186 22.2309 28.4482C23.0613 29.2786 24.166 29.7361 25.341 29.7361C26.0302 29.7361 26.6887 29.5814 27.3001 29.2772L27.4929 29.1815L29.2995 30.9881C29.5252 31.2138 29.8257 31.3386 30.1449 31.3386C30.464 31.3386 30.7645 31.2145 30.9903 30.9881C31.216 30.7623 31.3408 30.4619 31.3408 30.1427C31.3408 29.8235 31.2167 29.5231 30.9903 29.2973L29.1837 27.4907H29.1829ZM26.7582 26.7575C26.38 27.1365 25.8754 27.3442 25.3395 27.3442C24.8036 27.3442 24.2991 27.1357 23.9209 26.7567C23.5426 26.3785 23.3341 25.8748 23.3341 25.3381C23.3341 24.8014 23.5374 24.3118 23.9059 23.9351L23.9186 23.9224C23.9186 23.9224 23.9201 23.9209 23.9216 23.9194L23.9433 23.8977C24.3192 23.5322 24.8141 23.3319 25.3403 23.3319C25.8665 23.3319 26.3807 23.5405 26.7589 23.9194C27.1371 24.2976 27.3457 24.8014 27.3457 25.3381C27.3457 25.8748 27.1371 26.3778 26.7582 26.7567V26.7575Z" fill="#14E1E3" stroke="#F2F4FA" stroke-width="0.25"/>
<path d="M47.2242 12.8279L47.21 12.8003C47.1988 12.7771 47.1883 12.7547 47.1749 12.7323C47.1562 12.6994 47.1345 12.6665 47.1106 12.6329L47.0956 12.6104C44.9108 8.88962 41.7895 5.76826 38.0686 3.58271L38.0455 3.56776C38.0126 3.54384 37.9782 3.52217 37.9446 3.50273C37.9199 3.48853 37.8945 3.47657 37.8698 3.46461L37.8467 3.45266C34.0541 1.27608 29.7286 0.125 25.3388 0.125C20.949 0.125 16.625 1.27533 12.8309 3.45191L12.8122 3.46163C12.7824 3.47583 12.7569 3.48779 12.7323 3.50199C12.6979 3.52142 12.6643 3.54384 12.6314 3.56776L12.6082 3.58271C8.88813 5.76826 5.76677 8.88962 3.58197 12.6104L3.56702 12.6329C3.5431 12.6665 3.52217 12.6986 3.50274 12.7315C3.49003 12.7532 3.47956 12.7749 3.4691 12.7973L3.45415 12.8272C1.27608 16.622 0.125 20.9483 0.125 25.3388C0.125 29.7293 1.29177 34.1251 3.49975 37.9401C3.50274 37.9446 3.50498 37.9483 3.50797 37.9528C3.52292 37.9782 3.54086 38.0066 3.56253 38.0365C3.56776 38.044 3.57374 38.0522 3.57972 38.0597C3.60364 38.0918 3.62457 38.118 3.644 38.1397L3.64924 38.1456C3.66867 38.1673 3.69109 38.1905 3.7195 38.2174L3.74117 38.2368C3.76434 38.2578 3.78901 38.2787 3.81442 38.2981L3.82339 38.3056C3.84656 38.3228 3.87198 38.34 3.90337 38.3594L3.92804 38.3744C3.9542 38.3901 3.9811 38.405 4.00876 38.4185L4.02371 38.4259C4.04389 38.4356 4.07304 38.4476 4.10967 38.4618L4.13583 38.4715C4.16423 38.4812 4.19338 38.491 4.22253 38.4992L4.23823 38.5037C4.26215 38.5096 4.29429 38.5171 4.33091 38.5231L4.35857 38.5276C4.38772 38.5321 4.41762 38.5358 4.44751 38.538L4.46246 38.5395C4.48713 38.541 4.51404 38.5425 4.5402 38.5425L4.58804 38.541C4.61719 38.5395 4.64858 38.538 4.67997 38.5343L4.69642 38.5328C4.71884 38.5298 4.75247 38.5238 4.7906 38.5156L4.81526 38.5096C4.85189 38.5007 4.88178 38.4925 4.90944 38.4835L4.92289 38.479C4.9498 38.4693 4.9797 38.4581 5.01558 38.4416L5.038 38.4319C5.07687 38.414 5.10751 38.3983 5.13517 38.3826L9.29549 35.981C9.86654 35.6514 10.0631 34.9181 9.73349 34.3471C9.40387 33.776 8.67062 33.5794 8.09957 33.9091L4.99913 35.6992L4.85787 35.4129C3.53562 32.7296 2.765 29.8489 2.56543 26.8524L2.5445 26.5332H6.1233C6.78255 26.5332 7.31922 25.9966 7.31922 25.3373C7.31922 24.678 6.78255 24.1414 6.1233 24.1414H2.546L2.56693 23.823C2.76425 20.8287 3.53637 17.9495 4.86235 15.2646L5.00362 14.9784L8.09957 16.7655C8.2812 16.8702 8.48749 16.9262 8.69603 16.9262C9.12283 16.9262 9.51972 16.6968 9.73275 16.3283C9.8927 16.0517 9.93531 15.7296 9.85234 15.4209C9.76937 15.1122 9.57205 14.8543 9.29549 14.6951L6.20253 12.9094L6.38117 12.6441C8.05098 10.1588 10.158 8.05173 12.6441 6.38117L12.9094 6.20253L14.6951 9.29549C14.9081 9.66473 15.3057 9.89345 15.7325 9.89345C15.9411 9.89345 16.1474 9.83814 16.329 9.73275C16.6056 9.57279 16.8036 9.31492 16.8859 9.00622C16.9688 8.69753 16.9262 8.37537 16.7663 8.09882L14.9791 5.00362L15.2654 4.86235C17.9502 3.53637 20.8294 2.76425 23.8237 2.56693L24.1421 2.546V6.1233C24.1421 6.78255 24.6788 7.31922 25.338 7.31922C25.9973 7.31922 26.534 6.78255 26.534 6.1233V2.546L26.8524 2.56693C29.8467 2.76425 32.7259 3.53637 35.4107 4.86235L35.697 5.00362L33.9098 8.09882C33.7499 8.37537 33.7073 8.69753 33.7902 9.00622C33.8732 9.31492 34.0705 9.57279 34.3478 9.732C34.5295 9.83739 34.7358 9.8927 34.9443 9.8927C35.3711 9.8927 35.768 9.66323 35.9818 9.29474L37.7674 6.20178L38.0328 6.38042C40.5188 8.05023 42.6259 10.1573 44.2957 12.6433L44.4743 12.9087L41.3814 14.6943C41.1048 14.8543 40.9067 15.1122 40.8238 15.4209C40.7408 15.7296 40.7834 16.0517 40.9433 16.3283C41.1564 16.6975 41.554 16.9262 41.9808 16.9262C42.1894 16.9262 42.3956 16.8709 42.5773 16.7655L45.6732 14.9784L45.8145 15.2646C47.1405 17.9495 47.9126 20.8287 48.1099 23.823L48.1308 24.1414H44.5535C43.8943 24.1414 43.3576 24.678 43.3576 25.3373C43.3576 25.9966 43.8943 26.5332 44.5535 26.5332H48.1323L48.1114 26.8524C47.9126 29.8489 47.1412 32.7288 45.819 35.4129L45.6777 35.6992L42.5773 33.9091C42.3927 33.8029 42.1886 33.7484 41.9816 33.7484C41.8777 33.7484 41.773 33.7618 41.6699 33.7895C41.3612 33.8725 41.1033 34.0698 40.9441 34.3471C40.7849 34.6244 40.7423 34.9458 40.8245 35.2545C40.9075 35.5632 41.1048 35.8211 41.3821 35.9803L45.5424 38.3818C45.7241 38.4865 45.9303 38.5425 46.1389 38.5425C46.5649 38.5425 46.9618 38.3138 47.1756 37.9453C49.3858 34.1281 50.5541 29.7682 50.5541 25.3373C50.5541 20.9064 49.403 16.6205 47.2249 12.8264L47.2242 12.8279Z" fill="#14E1E3" stroke="#F2F4FA" stroke-width="0.25"/>
</svg>
