<svg width="20" height="20" viewBox="0 0 20 20" fill="none" xmlns="http://www.w3.org/2000/svg">
<path d="M9.68672 0C11.4055 0 13.0461 0.46875 14.5305 1.32812C16.0148 2.1875 17.1867 3.35938 18.0461 4.84375C18.9055 6.32812 19.3742 7.96875 19.3742 9.6875C19.3742 11.4453 18.9055 13.0469 18.0461 14.5312C17.1867 16.0156 16.0148 17.2266 14.5305 18.0859C13.0461 18.9453 11.4055 19.375 9.68672 19.375C7.92891 19.375 6.32734 18.9453 4.84297 18.0859C3.35859 17.2266 2.14766 16.0156 1.28828 14.5312C0.428906 13.0469 -0.000781059 11.4453 -0.000781059 9.6875C-0.000781059 7.96875 0.428906 6.32812 1.28828 4.84375C2.14766 3.35938 3.35859 2.1875 4.84297 1.32812C6.32734 0.46875 7.92891 0 9.68672 0ZM14.218 10.625C14.5305 10.4688 14.6867 10.1953 14.6867 9.80469C14.6867 9.45312 14.5305 9.17969 14.218 8.98438L7.34297 4.80469C7.03047 4.64844 6.71797 4.64844 6.40547 4.80469C6.09297 5 5.93672 5.27344 5.93672 5.625V13.75C5.93672 14.1406 6.09297 14.4141 6.40547 14.5703C6.71797 14.7656 7.03047 14.7656 7.34297 14.5703L14.218 10.625Z" fill="#061238"/>
</svg>
