<svg width="44" height="44" viewBox="0 0 44 44" fill="none" xmlns="http://www.w3.org/2000/svg" aira-hidden="true">
<path d="M27.4757 17.6336V13.2527C27.4757 12.6393 26.9792 12.1428 26.3659 12.1428C25.7526 12.1428 25.256 12.6393 25.256 13.2527V17.6336C25.256 19.4444 23.7957 20.9047 21.9849 20.9047C20.1741 20.9047 18.7138 19.4444 18.7138 17.6336V13.2527C18.7138 12.6393 18.2173 12.1428 17.604 12.1428C16.9906 12.1428 16.4941 12.6393 16.4941 13.2527V17.6336C16.4941 19.4444 17.3703 21.0216 18.7138 22.0146C17.3703 23.0076 16.4941 24.5847 16.4941 26.3955V30.7765C16.4941 31.3898 16.9906 31.8863 17.604 31.8863C18.2173 31.8863 18.7138 31.3898 18.7138 30.7765V26.3955C18.7138 24.5847 20.1741 23.1244 21.9849 23.1244C23.7957 23.1244 25.256 24.5847 25.256 26.3955V30.7765C25.256 31.3898 25.7526 31.8863 26.3659 31.8863C26.9792 31.8863 27.4757 31.3898 27.4757 30.7765V26.3955C27.4757 24.5847 26.5995 23.0076 25.256 22.0146C26.5995 21.0216 27.4757 19.4444 27.4757 17.6336Z" fill="#14E1E3"/>
<path d="M42.9391 20.9391C42.3528 20.9391 41.8782 21.4137 41.8782 22C41.8782 32.9721 32.9442 41.8782 22 41.8782C11.0558 41.8782 2.09391 32.9442 2.09391 22C2.09391 11.0558 11.0279 2.09391 22 2.09391C27.3046 2.09391 32.302 4.1599 36.0711 7.92893L37.132 8.98985H32.6929C32.1066 8.98985 31.632 9.46447 31.632 10.0508C31.632 10.6371 32.1066 11.1117 32.6929 11.1117H39.6726C40.2589 11.1117 40.7335 10.6371 40.7335 10.0508V3.04315C40.7335 2.45685 40.2589 1.98223 39.6726 1.98223C39.0863 1.98223 38.6117 2.45685 38.6117 3.04315V7.51015L37.5508 6.44924C33.3909 2.28934 27.8909 0 22 0C9.85533 0 0 9.85533 0 22C0 34.1447 9.85533 44 22 44C34.1447 44 44 34.1447 44 22C44 21.4137 43.5254 20.9391 42.9391 20.9391Z" fill="#14E1E3"/>
</svg>
