<svg width="45" height="45" viewBox="0 0 45 45" fill="none" xmlns="http://www.w3.org/2000/svg" aira-hidden="true">
<path d="M43.7053 37.6274L33.9618 27.7641C36.0197 24.3787 36.9239 20.3383 36.5094 16.3599C36.0756 12.2 34.2114 8.28437 31.2579 5.33323C24.1153 -1.77774 12.4936 -1.77774 5.35091 5.33323C1.90525 8.76401 0.00437131 13.3477 7.50019e-06 18.2383C-0.00435631 23.1421 1.89565 27.7432 5.35091 31.1958C8.79395 34.6361 13.389 36.5303 18.2922 36.5303C21.7047 36.5303 25.0151 35.6059 27.8821 33.8539L37.6684 43.6579C38.5054 44.4942 39.5265 44.9363 40.6209 44.9363C40.6297 44.9363 40.6375 44.9363 40.6462 44.9363L40.7422 45L40.895 44.9869C41.8899 44.8997 42.8945 44.4148 43.6546 43.6544C45.1052 42.1771 45.7397 39.6602 43.7044 37.6265L43.7053 37.6274ZM6.83285 6.81403C13.1464 0.505374 23.4398 0.505374 29.776 6.81229C36.0407 13.1471 36.0416 23.4325 29.7786 29.7403C23.4398 36.0245 13.1455 36.0254 6.83198 29.7403C0.54461 23.4307 0.54461 13.1454 6.83198 6.81316L6.83285 6.81403ZM31.2588 31.1966C31.7755 30.6821 32.2651 30.1318 32.7181 29.5571L42.2006 39.0567L42.2076 39.0637C42.8072 39.6288 43.0132 40.275 42.8194 40.9841C42.5934 41.796 41.9187 42.4727 41.1394 42.6672L41.128 42.6707C40.4219 42.8765 39.7927 42.6898 39.2027 42.1012L29.6887 32.5946C30.2394 32.1586 30.7657 31.6894 31.2588 31.1975V31.1966Z" fill="#14E1E3"/>
<path d="M29.5659 24.1022C29.99 24.1022 30.4648 23.7176 30.4648 23.204C30.4648 22.7173 30.0529 22.3057 29.5659 22.3057H27.6065V11.6253C27.6065 11.1378 27.1946 10.7271 26.7076 10.7271C26.2206 10.7271 25.8086 11.1221 25.8086 11.6253V22.3057H22.013V15.8636C22.013 15.3849 21.6098 14.9959 21.114 14.9959C20.6183 14.9959 20.2151 15.3849 20.2151 15.8636V22.3057H16.4195V12.0552C16.4195 11.5512 16.0241 11.157 15.5205 11.157C15.0169 11.157 14.6216 11.552 14.6216 12.0552V22.3057H10.8574V15.8636C10.8574 15.4014 10.4376 14.9959 9.95841 14.9959C9.47926 14.9959 9.05946 15.3849 9.05946 15.8636V22.3057H7.10012C6.59566 22.3057 6.20117 22.7008 6.20117 23.204C6.20117 23.7072 6.59653 24.1022 7.10012 24.1022H29.5685H29.5659Z" fill="#14E1E3"/>
</svg>
