<svg width="47" height="52" viewBox="0 0 47 52" fill="none" xmlns="http://www.w3.org/2000/svg" aira-hidden="true">
<path d="M26.0727 27.7501C26.2627 27.9476 26.5231 28.059 26.7936 28.0567C27.0652 28.0567 27.3256 27.9465 27.5168 27.7501L38.9619 15.9904C42.5206 12.3281 42.5151 6.39541 38.9519 2.73887C35.658 -0.63975 30.4149 -0.928001 26.7892 2.07165C22.8482 -1.15079 17.1111 -0.481269 13.9748 3.56688C11.1001 7.27739 11.3773 12.6083 14.6186 15.9835L26.0716 27.7489L26.0727 27.7501ZM16.0582 4.21802C18.8256 1.38145 23.3053 1.38145 26.0727 4.21802C26.4717 4.62801 27.1189 4.62801 27.5179 4.21802C30.2831 1.37686 34.7672 1.37686 37.5324 4.21802C40.2976 7.05919 40.2976 11.6666 37.5324 14.5078L26.8048 25.5325L16.075 14.5078C13.3087 11.6678 13.3042 7.06378 16.0649 4.21802H16.0593H16.0582Z" fill="#14E1E3"/>
<path d="M45.1574 31.9786C43.7681 31.0231 41.9563 31.0231 40.5671 31.9786L33.8777 36.5607V36.4815C33.8755 34.3075 32.1609 32.5459 30.0451 32.5436H21.9598L21.0969 31.8775C17.0352 28.7745 11.3763 29.1879 7.78185 32.8502L6.48868 34.1812C5.77895 33.3027 4.53049 33.1373 3.62739 33.8011L0.882347 35.8464C-0.0721604 36.5584 -0.285639 37.9308 0.406211 38.9127L8.99007 51.0927C9.32091 51.5658 9.82163 51.8828 10.3816 51.9724C10.4945 51.9908 10.6085 51.9999 10.7225 51.9999C11.1718 51.9999 11.6088 51.8518 11.971 51.5796L14.7182 49.532C15.1687 49.1955 15.4716 48.6914 15.5621 48.1275H31.6177C31.8189 48.1275 32.0167 48.0655 32.1844 47.9507L45.1563 39.0574C47.0586 37.7539 47.5727 35.1114 46.303 33.1568C46.0002 32.6906 45.6101 32.2898 45.1563 31.9786H45.1574ZM10.6443 49.8501L2.07269 37.5461L4.81773 35.4984C4.8345 35.487 4.8535 35.4812 4.8725 35.4812C4.90268 35.4812 4.93062 35.495 4.94627 35.5214L13.5178 47.8255L10.6443 49.8501ZM44.0185 37.3106L31.3059 46.019H14.8825L7.72932 35.8809L9.22702 34.3271C12.1006 31.4009 16.6239 31.0702 19.8708 33.5496L21.0052 34.4258C21.1818 34.5625 21.3976 34.636 21.6189 34.636H30.0496C31.0376 34.636 31.8379 35.4583 31.8379 36.4734C31.8379 37.4886 31.0376 38.3109 30.0496 38.3109H20.376C19.8116 38.3109 19.3544 38.7806 19.3544 39.3605C19.3544 39.9405 19.8116 40.4102 20.376 40.4102H31.6166C31.8178 40.4102 32.0156 40.3482 32.1833 40.2333L41.6948 33.723C42.6594 33.0638 43.9604 33.3337 44.6019 34.3248C44.8299 34.6785 44.9529 35.0931 44.9529 35.5168C44.9585 36.2392 44.6064 36.9144 44.0185 37.3106Z" fill="#14E1E3"/>
</svg>
