<svg class="icon icon-youtube" width="22" height="15" viewBox="0 0 22 15" fill="none" xmlns="http://www.w3.org/2000/svg">
<path d="M20.8537 2.33276C20.6084 1.42058 19.8892 0.701518 18.9771 0.455896C17.3109 0 10.646 0 10.646 0C10.646 0 3.98129 0 2.31509 0.438611C1.42058 0.683974 0.683844 1.42071 0.438482 2.33276C0 3.99884 0 7.45406 0 7.45406C0 7.45406 0 10.9267 0.438482 12.5753C0.684104 13.4874 1.40304 14.2065 2.31522 14.4521C3.99884 14.9081 10.6462 14.9081 10.6462 14.9081C10.6462 14.9081 17.3109 14.9081 18.9771 14.4695C19.8893 14.224 20.6084 13.5049 20.854 12.5929C21.2923 10.9267 21.2923 7.4716 21.2923 7.4716C21.2923 7.4716 21.3099 3.99884 20.8537 2.33276ZM8.52401 10.6461V4.262L14.0662 7.45406L8.52401 10.6461Z" fill="currentColor"/>
</svg>