<svg width="382" height="450" viewBox="0 0 382 450" fill="none" xmlns="http://www.w3.org/2000/svg">
<path d="M230.147 -80.9873C276.942 -80.454 319.452 -63.1679 351.224 -35.2061C351.333 -35.1481 351.339 -35.2062 351.255 -35.1709C351.257 -35.166 351.426 -34.7741 351.701 -34.0098C386.168 -3.05716 407.653 40.5875 407.653 88.9639C407.653 123.781 396.523 156.146 377.438 183.097L289.972 310.681L324.599 358.192L324.597 358.19C324.597 358.19 421.646 507.55 532 552L445.615 541.999C372.74 533.562 306.627 495.398 262.912 436.596L261.883 435.203L232.278 394.835L156.574 505.263L156.099 505.944C146.014 520.181 129.63 528.666 112.139 528.666H0C36.3314 500.528 170.129 315.377 170.27 315.183L172.007 312.648L76.998 183.096C59.1385 157.007 48.515 123.887 48.1875 90.5498L48.1797 88.9629C48.1797 41.5326 68.8323 -1.34985 102.124 -32.1807C102.254 -32.598 102.375 -32.9726 102.487 -33.3037C134.973 -62.8291 179.187 -81 227.916 -81L230.147 -80.9873ZM233.177 393.523L263.093 434.316C306.549 493.572 372.753 532.054 445.787 540.509L522.022 549.334C470.065 525.523 421.725 479.922 385.794 439.422C366.729 417.932 351.12 397.837 340.277 383.112C334.856 375.75 330.623 369.729 327.746 365.546C326.307 363.455 325.207 361.822 324.466 360.712C324.095 360.157 323.815 359.732 323.626 359.445C323.532 359.302 323.46 359.193 323.412 359.12C323.388 359.084 323.37 359.056 323.357 359.037L289.071 311.993L233.177 393.523ZM171.507 316.031L171.496 316.046L171.485 316.062L170.27 315.183L171.484 316.063C171.483 316.065 171.481 316.067 171.479 316.069C171.475 316.075 171.469 316.084 171.461 316.095C171.445 316.117 171.42 316.152 171.388 316.196C171.323 316.286 171.227 316.419 171.1 316.595C170.845 316.947 170.466 317.469 169.971 318.151C168.98 319.516 167.524 321.522 165.657 324.084C161.923 329.208 156.548 336.56 149.984 345.47C136.858 363.289 118.977 387.342 99.959 412.276C80.9422 437.209 60.7809 463.033 43.0957 484.389C27.3754 503.372 13.5204 518.935 4.14941 527.166H112.139C129.413 527.166 145.576 518.653 155.337 504.414L231.338 393.553L172.946 313.931L171.507 316.031ZM173.846 312.619L232.237 392.242L288.134 310.707L229.928 230.841L173.846 312.619ZM100.428 -28.5127C69.0152 1.84669 49.6797 43.2842 49.6797 88.9629C49.6797 122.526 60.2603 155.979 78.2236 182.229L172.905 311.337L228.99 229.555L138.163 104.931L138.149 104.911L138.136 104.893C91.6414 36.7588 96.2699 -11.0679 100.428 -28.5127ZM353.569 -30.2578C353.907 -28.9872 354.263 -27.5031 354.604 -25.8105C355.9 -19.3603 356.997 -9.89081 356.24 2.27441C354.725 26.6175 345.79 61.6792 316.301 104.893L316.299 104.896L230.827 229.529L289.034 309.395L376.201 182.249L376.207 182.239L376.214 182.23C395.129 155.519 406.153 123.455 406.153 88.9639C406.153 42.403 386.062 0.249374 353.569 -30.2578ZM227.918 7.41504C180.065 7.41512 141.497 48.1813 141.777 98.4697C141.794 101.728 141.994 104.94 142.334 108.107L229.89 228.243L314.905 104.274C314.999 102.652 315.061 101.02 315.071 99.375L315.072 98.4697C314.794 48.5756 276.378 8.05274 229.037 7.42285L227.918 7.41504ZM227.916 -79.5C179.709 -79.5 135.974 -61.5777 103.789 -32.457C100.333 -21.9271 88.36 27.8638 139.74 103.174L140.487 104.199C140.392 102.776 140.326 101.343 140.296 99.8994L140.277 98.4775C139.993 47.4291 179.163 5.91512 227.918 5.91504C276.665 5.91525 316.287 47.4195 316.572 98.4609C316.576 99.1135 316.57 99.7638 316.558 100.411C344.263 58.8935 352.654 25.3309 354.101 2.08789C354.84 -9.79892 353.766 -19.006 352.517 -25.2188C351.892 -28.3254 351.224 -30.6845 350.717 -32.2559C350.463 -33.0416 350.249 -33.6306 350.102 -34.0176C350.061 -34.1228 350.025 -34.2128 349.995 -34.2881C318.016 -62.3315 275.105 -79.5 227.916 -79.5Z" fill="white"/>
</svg>
